<svg width="55" height="57" viewBox="0 0 55 57" fill="none" xmlns="http://www.w3.org/2000/svg">
<path d="M15.95 0H39.05C47.85 0 55 7.39655 55 16.5V40.3966C55 44.7726 53.3196 48.9695 50.3284 52.0638C47.3372 55.1582 43.2802 56.8966 39.05 56.8966H15.95C7.15 56.8966 0 49.5 0 40.3966V16.5C0 12.1239 1.68044 7.92709 4.67165 4.83274C7.66285 1.73839 11.7198 0 15.95 0ZM15.4 5.68966C12.7744 5.68966 10.2563 6.76866 8.39964 8.68929C6.54303 10.6099 5.5 13.2149 5.5 15.931V40.9655C5.5 46.6267 9.9275 51.2069 15.4 51.2069H39.6C42.2256 51.2069 44.7438 50.1279 46.6004 48.2073C48.457 46.2866 49.5 43.6817 49.5 40.9655V15.931C49.5 10.2698 45.0725 5.68966 39.6 5.68966H15.4ZM41.9375 9.9569C42.8492 9.9569 43.7235 10.3315 44.3682 10.9984C45.0128 11.6653 45.375 12.5698 45.375 13.5129C45.375 14.4561 45.0128 15.3605 44.3682 16.0274C43.7235 16.6943 42.8492 17.069 41.9375 17.069C41.0258 17.069 40.1515 16.6943 39.5068 16.0274C38.8622 15.3605 38.5 14.4561 38.5 13.5129C38.5 12.5698 38.8622 11.6653 39.5068 10.9984C40.1515 10.3315 41.0258 9.9569 41.9375 9.9569ZM27.5 14.2241C31.1467 14.2241 34.6441 15.7227 37.2227 18.3903C39.8013 21.0578 41.25 24.6758 41.25 28.4483C41.25 32.2208 39.8013 35.8387 37.2227 38.5063C34.6441 41.1738 31.1467 42.6724 27.5 42.6724C23.8533 42.6724 20.3559 41.1738 17.7773 38.5063C15.1987 35.8387 13.75 32.2208 13.75 28.4483C13.75 24.6758 15.1987 21.0578 17.7773 18.3903C20.3559 15.7227 23.8533 14.2241 27.5 14.2241ZM27.5 19.9138C25.312 19.9138 23.2135 20.813 21.6664 22.4135C20.1192 24.014 19.25 26.1848 19.25 28.4483C19.25 30.7118 20.1192 32.8825 21.6664 34.4831C23.2135 36.0836 25.312 36.9828 27.5 36.9828C29.688 36.9828 31.7865 36.0836 33.3336 34.4831C34.8808 32.8825 35.75 30.7118 35.75 28.4483C35.75 26.1848 34.8808 24.014 33.3336 22.4135C31.7865 20.813 29.688 19.9138 27.5 19.9138Z" fill="black"/>
</svg>
