<svg width="45" height="43" viewBox="0 0 45 43" fill="none" xmlns="http://www.w3.org/2000/svg">
<path d="M38.4422 6.23581C36.3687 4.25176 33.8993 2.67861 31.1778 1.60803C28.4563 0.537454 25.5371 -0.00913534 22.5904 0.000115489C10.2437 0.000115489 0.180905 9.5358 0.180905 21.2358C0.180905 24.9858 1.22111 28.6286 3.16583 31.8429L0 42.8571L11.8719 39.9C15.1508 41.5929 18.8367 42.4929 22.5904 42.4929C34.9372 42.4929 45 32.9572 45 21.2572C45 15.5786 42.6708 10.2429 38.4422 6.23581ZM22.5904 38.8929C19.2437 38.8929 15.9648 38.0357 13.093 36.4286L12.4146 36.0429L5.3593 37.8L7.23618 31.2857L6.78392 30.6215C4.9241 27.808 3.93676 24.5556 3.93467 21.2358C3.93467 11.5072 12.3015 3.57868 22.5678 3.57868C27.5427 3.57868 32.2236 5.42153 35.7286 8.76438C37.4645 10.4012 38.84 12.3484 39.7755 14.4929C40.711 16.6375 41.1879 18.9367 41.1784 21.2572C41.2236 30.9857 32.8568 38.8929 22.5904 38.8929ZM32.8116 25.6929C32.2462 25.4358 29.4874 24.1501 28.9899 23.9572C28.4698 23.7858 28.108 23.7001 27.7236 24.2143C27.3392 24.75 26.2764 25.95 25.9598 26.2929C25.6432 26.6572 25.304 26.7 24.7387 26.4215C24.1734 26.1643 22.3643 25.5858 20.2387 23.7858C18.5653 22.3715 17.4573 20.6358 17.1181 20.1001C16.8015 19.5644 17.0729 19.2858 17.3668 19.0072C17.6156 18.7715 17.9322 18.3858 18.2035 18.0858C18.4749 17.7858 18.5879 17.5501 18.7688 17.2072C18.9497 16.8429 18.8593 16.5429 18.7236 16.2858C18.5879 16.0286 17.4573 13.4144 17.005 12.3429C16.5528 11.3144 16.0779 11.4429 15.7387 11.4215H14.6533C14.2688 11.4215 13.6809 11.5501 13.1608 12.0858C12.6633 12.6215 11.2161 13.9072 11.2161 16.5215C11.2161 19.1358 13.2286 21.6643 13.5 22.0072C13.7714 22.3715 17.4573 27.7286 23.0653 30.0215C24.3995 30.5786 25.4397 30.9 26.2538 31.1357C27.5879 31.5429 28.809 31.4786 29.7814 31.35C30.8668 31.2 33.1055 30.0643 33.5578 28.8215C34.0327 27.5786 34.0327 26.5286 33.8744 26.2929C33.7161 26.0572 33.3769 25.95 32.8116 25.6929Z" fill="black"/>
</svg>
